<svg xmlns="http://www.w3.org/2000/svg" viewBox="0 0 379.93 103.64"><defs><style>.cls-1{fill:#0580e5;}.cls-2{fill:#03c8e8;}</style></defs><g id="Layer_2" data-name="Layer 2"><g id="Layer_1-2" data-name="Layer 1"><path class="cls-1" d="M147.12,57.47l-10-2.37a10.15,10.15,0,0,1-6-3.4A10.67,10.67,0,0,1,129.27,45q0-6.26,3.59-9.22t11.17-3a48.81,48.81,0,0,1,5.69.3,30.45,30.45,0,0,1,4.72.89v5.07a40.89,40.89,0,0,0-5.27-.92A48.67,48.67,0,0,0,144,37.9q-5.07,0-7.11,1.49c-1.37,1-2,2.73-2,5.23a5.71,5.71,0,0,0,1,3.59A5.42,5.42,0,0,0,138.89,50l10,2.37q5.26,1.26,7,3.52c1.16,1.52,1.75,3.86,1.75,7q0,6.8-3.53,9.62t-11.16,2.83a53.87,53.87,0,0,1-7.74-.53,26.83,26.83,0,0,1-5.9-1.38V68.14a44.55,44.55,0,0,0,6.59,1.42,50.21,50.21,0,0,0,7,.49c3.29,0,5.6-.48,6.91-1.45s2-2.83,2-5.6a5.8,5.8,0,0,0-1-3.72A6.83,6.83,0,0,0,147.12,57.47Z"/><path class="cls-1" d="M169.39,60.7V74.79H164V31h5.4V56h3.89l11.39-13.77h6.52l-13.5,15.81,14.16,16.73h-6.78L173.47,60.7Z"/><path class="cls-1" d="M219.06,68.47V73a19.5,19.5,0,0,1-5,1.61,33.18,33.18,0,0,1-6.75.69q-7.65,0-10.94-3.95c-2.19-2.64-3.29-7-3.29-13.05q0-8.76,3.42-12.74t10.94-4q7,0,10,3.13t3,10.44c0,.88,0,1.69-.06,2.44s-.13,1.65-.26,2.7H198.51c0,3.6.78,6.17,2.2,7.71s3.9,2.3,7.41,2.3a35.42,35.42,0,0,0,5.93-.52A23.49,23.49,0,0,0,219.06,68.47Zm-3.56-14q-.06-4.35-1.91-6.16t-6.19-1.81q-4.87,0-6.88,2.07c-1.34,1.39-2,3.81-2,7.28h16.93c0-.09,0-.3,0-.62S215.5,54.61,215.5,54.44Z"/><path class="cls-1" d="M232.83,31v43.8h-5.4V31Z"/><path class="cls-1" d="M246.92,31v43.8h-5.4V31Z"/><path class="cls-1" d="M258.58,80.59a5.69,5.69,0,0,0,3.79-1.09q1.29-1.08,2.74-5.17L251.8,42.25h6.06l10,26.68,9.49-26.68h5.8L269.85,77q-1.78,4.74-4.15,6.62a9.58,9.58,0,0,1-6.13,1.88,21.53,21.53,0,0,1-2.34-.14c-.81-.08-1.61-.19-2.4-.32V80.26a9.15,9.15,0,0,0,1.61.27C257,80.57,257.75,80.59,258.58,80.59Z"/><path class="cls-1" d="M304.57,57.47l-10-2.37a10.21,10.21,0,0,1-6-3.4A10.74,10.74,0,0,1,286.71,45q0-6.26,3.59-9.22t11.17-3a48.86,48.86,0,0,1,5.7.3,30.54,30.54,0,0,1,4.71.89v5.07a40.6,40.6,0,0,0-5.27-.92,48.67,48.67,0,0,0-5.21-.27q-5.07,0-7.11,1.49c-1.36,1-2,2.73-2,5.23a5.78,5.78,0,0,0,.95,3.59A5.42,5.42,0,0,0,296.33,50l9.95,2.37q5.27,1.26,7,3.52t1.75,7q0,6.8-3.52,9.62t-11.17,2.83a53.87,53.87,0,0,1-7.74-.53,27,27,0,0,1-5.9-1.38V68.14a44.83,44.83,0,0,0,6.59,1.42,50.21,50.21,0,0,0,7.05.49q4.93,0,6.92-1.45t2-5.6a5.87,5.87,0,0,0-.95-3.72A6.91,6.91,0,0,0,304.57,57.47Z"/><path class="cls-1" d="M327,36.59h-5.8V31H327Zm-.2,38.2h-5.4V42.25h5.4Z"/><path class="cls-1" d="M340.93,74.79h-5.4V42.25h4.94l.26,2.5h.2a28.45,28.45,0,0,1,5.27-2.4,15.65,15.65,0,0,1,4.74-.76,11.93,11.93,0,0,1,4.75.86A6.86,6.86,0,0,1,358.78,45h.2a22.94,22.94,0,0,1,5.57-2.54,20.28,20.28,0,0,1,5.89-.89c3.12,0,5.48.83,7.08,2.47s2.41,4.08,2.41,7.28V74.79h-5.4V52A5.32,5.32,0,0,0,373,47.82q-1.51-1.35-4.81-1.35a14.38,14.38,0,0,0-3.88.56,20.78,20.78,0,0,0-4.09,1.61A9.93,9.93,0,0,1,360.4,50q0,.66,0,1.38V74.79H355V52a5.32,5.32,0,0,0-1.52-4.18q-1.51-1.35-4.81-1.35a11.79,11.79,0,0,0-3.49.56,23.94,23.94,0,0,0-4.28,1.87Z"/><path class="cls-2" d="M51.82,0a51.82,51.82,0,1,0,51.82,51.82A51.88,51.88,0,0,0,51.82,0ZM5.61,51.82a46.19,46.19,0,0,1,77.44-34H42.51a18.42,18.42,0,1,0,0,36.83H61.13a12.81,12.81,0,0,1,0,25.62H15.42A46,46,0,0,1,5.61,51.82ZM51.82,98A46,46,0,0,1,20.59,85.85H61.13a18.42,18.42,0,1,0,0-36.83H42.51a12.81,12.81,0,1,1,0-25.62H88.22A46.17,46.17,0,0,1,51.82,98Z"/><circle class="cls-1" cx="51.82" cy="51.82" r="8.29"/></g></g></svg>