<svg xmlns="http://www.w3.org/2000/svg" viewBox="0 0 103.64 103.64"><defs><style>.cls-1{fill:#8f8f8f;}</style></defs><g id="Layer_2" data-name="Layer 2"><g id="Layer_1-2" data-name="Layer 1"><path d="M51.82,0a51.82,51.82,0,1,0,51.82,51.82A51.88,51.88,0,0,0,51.82,0ZM5.61,51.82a46.19,46.19,0,0,1,77.44-34H42.51a18.42,18.42,0,1,0,0,36.83H61.13a12.81,12.81,0,0,1,0,25.62H15.42A46,46,0,0,1,5.61,51.82ZM51.82,98A46,46,0,0,1,20.59,85.85H61.13a18.42,18.42,0,1,0,0-36.83H42.51a12.81,12.81,0,1,1,0-25.62H88.22A46.17,46.17,0,0,1,51.82,98Z"/><circle class="cls-1" cx="51.82" cy="51.82" r="8.29"/></g></g></svg>